<svg width="303" height="302" viewBox="0 0 303 302" fill="none" xmlns="http://www.w3.org/2000/svg">
<rect x="303" y="8" width="142" height="73" rx="36.5" transform="rotate(90 303 8)" fill="#8D85FF"/>
<path d="M259.75 74.9167L266.233 71.1667C266.4 71.0833 266.6 71.0833 266.767 71.1667L273.25 74.9167C273.417 75.0167 273.517 75.1833 273.517 75.3667V82.8667C273.517 83.05 273.417 83.2167 273.25 83.3167L266.767 87.0667C266.684 87.1078 266.592 87.1292 266.5 87.1292C266.407 87.1292 266.316 87.1078 266.233 87.0667L259.75 83.3167C259.671 83.2709 259.604 83.2054 259.558 83.1266C259.511 83.0478 259.485 82.9583 259.483 82.8667V75.3667C259.483 75.1833 259.583 75.0167 259.75 74.9167ZM283.367 78.3333C283.65 78.8167 283.65 79.3833 283.367 79.8833L275.617 93.2667C275.333 93.7667 274.833 94 274.25 94H258.75C258.167 94 257.667 93.75 257.383 93.2667L249.633 79.8833C249.494 79.6426 249.421 79.3696 249.421 79.0917C249.421 78.8137 249.494 78.5407 249.633 78.3L257.383 64.8333C257.667 64.3667 258.167 64 258.75 64H274.25C274.833 64 275.333 64.3667 275.617 64.8333L283.367 78.3333ZM276.95 84.8333V73.4167C276.95 73.2167 276.833 73.0333 276.65 72.9333L266.767 67.25C266.683 67.2017 266.588 67.1763 266.492 67.1763C266.395 67.1763 266.3 67.2017 266.217 67.25L256.35 72.9333C256.167 73.0333 256.05 73.2167 256.05 73.4167V84.8333C256.05 85.0167 256.167 85.2 256.35 85.3L266.233 90.9833C266.4 91.0833 266.617 91.0833 266.783 90.9833L276.65 85.3C276.737 85.2558 276.81 85.1893 276.863 85.1073C276.916 85.0253 276.946 84.9307 276.95 84.8333Z" fill="#3C2EFF"/>
<rect x="222" y="72" width="142" height="72" rx="36" transform="rotate(-180 222 72)" fill="white"/>
<path fill-rule="evenodd" clip-rule="evenodd" d="M143.941 35.706C143.941 29.757 147.151 26.0805 149.24 23.685C150.251 22.53 151 21.6705 151 21C151 21.6705 151.75 22.5285 152.758 23.685C154.849 26.0805 158.059 29.757 158.059 35.706C158.059 42.195 153.934 46.131 151.943 47.3535L151.555 51H150.494L150.059 47.355C148.07 46.1355 143.941 42.1995 143.941 35.706ZM150.037 45.756L151 31.59L151.973 45.759L150.998 46.884L150.037 45.756Z" fill="#6AA05A"/>
<rect x="142" y="152" width="142" height="72" rx="36" transform="rotate(-180 142 152)" fill="#241A39"/>
<g clip-path="url(#clip0_79_158)">
<path d="M66.6641 131.234C69.4531 131.234 71.7031 128.984 71.7031 126.195V121.156H66.6641C63.875 121.156 61.625 123.406 61.625 126.195C61.625 128.984 63.875 131.234 66.6641 131.234Z" fill="#0ACF83"/>
<path d="M61.625 116.117C61.625 113.328 63.875 111.078 66.6641 111.078H71.7031V121.156H66.6641C63.875 121.156 61.625 118.906 61.625 116.117Z" fill="#A259FF"/>
<path d="M61.625 106.039C61.625 103.25 63.875 101 66.6641 101H71.7031V111.078H66.6641C63.875 111.078 61.625 108.828 61.625 106.039Z" fill="#F24E1E"/>
<path d="M71.7031 101H76.7422C79.5312 101 81.7812 103.25 81.7812 106.039C81.7812 108.828 79.5312 111.078 76.7422 111.078H71.7031V101Z" fill="#FF7262"/>
<path d="M81.7812 116.117C81.7812 118.906 79.5312 121.156 76.7422 121.156C73.9531 121.156 71.7031 118.906 71.7031 116.117C71.7031 113.328 73.9531 111.078 76.7422 111.078C79.5312 111.078 81.7812 113.328 81.7812 116.117Z" fill="#1ABCFE"/>
</g>
<rect x="303" y="232" width="152" height="72" rx="36" transform="rotate(-180 303 232)" fill="#74C5F8"/>
<path d="M247.523 192.339C247.398 192.255 246.352 191.439 244.092 191.439C243.506 191.439 242.921 191.502 242.335 191.607C241.895 188.678 239.448 187.192 239.343 187.13L238.736 186.774L238.36 187.339C237.858 188.092 237.46 188.95 237.293 189.828C236.875 191.502 237.126 193.092 237.983 194.452C236.958 195.038 235.285 195.184 234.929 195.184H207.377C206.665 195.184 206.08 195.77 206.08 196.502C206.08 198.908 206.456 201.314 207.293 203.573C208.234 206.063 209.657 207.904 211.477 209.033C213.527 210.289 216.895 211 220.724 211C222.377 211 224.092 210.854 225.787 210.54C228.13 210.121 230.389 209.305 232.46 208.113C234.176 207.132 235.711 205.866 237 204.368C239.197 201.921 240.494 199.138 241.435 196.732H241.833C244.218 196.732 245.703 195.77 246.519 194.954C247.063 194.452 247.46 193.845 247.753 193.134L247.921 192.632L247.523 192.339ZM209.95 194.41H213.632C213.799 194.41 213.967 194.264 213.967 194.075V190.77C213.967 190.603 213.82 190.435 213.632 190.435H209.95C209.762 190.435 209.615 190.582 209.615 190.77V194.075C209.636 194.264 209.762 194.41 209.95 194.41ZM215.034 194.41H218.716C218.883 194.41 219.05 194.264 219.05 194.075V190.77C219.05 190.603 218.904 190.435 218.716 190.435H215.034C214.845 190.435 214.699 190.582 214.699 190.77V194.075C214.72 194.264 214.845 194.41 215.034 194.41ZM220.201 194.41H223.862C224.071 194.41 224.218 194.264 224.218 194.075V190.77C224.218 190.603 224.092 190.435 223.862 190.435H220.201C220.034 190.435 219.887 190.582 219.887 190.77V194.075C219.887 194.264 220.013 194.41 220.201 194.41ZM225.306 194.41H229.008C229.176 194.41 229.322 194.264 229.322 194.075V190.77C229.322 190.603 229.197 190.435 229.008 190.435H225.306C225.138 190.435 224.992 190.582 224.992 190.77V194.075C224.992 194.264 225.138 194.41 225.306 194.41ZM215.034 189.724H218.716C218.883 189.724 219.05 189.536 219.05 189.347V186.063C219.05 185.874 218.904 185.728 218.716 185.728H215.034C214.845 185.728 214.699 185.854 214.699 186.063V189.347C214.72 189.536 214.845 189.724 215.034 189.724ZM220.201 189.724H223.862C224.071 189.724 224.218 189.536 224.218 189.347V186.063C224.218 185.874 224.092 185.728 223.862 185.728H220.201C220.034 185.728 219.887 185.854 219.887 186.063V189.347C219.887 189.536 220.013 189.724 220.201 189.724ZM225.306 189.724H229.008C229.176 189.724 229.322 189.536 229.322 189.347V186.063C229.322 185.874 229.176 185.728 229.008 185.728H225.306C225.138 185.728 224.992 185.854 224.992 186.063V189.347C224.992 189.536 225.138 189.724 225.306 189.724ZM225.306 184.954H229.008C229.176 184.954 229.322 184.808 229.322 184.619V181.356C229.322 181.146 229.176 181 229.008 181H225.306C225.138 181 224.992 181.126 224.992 181.356V184.619C224.992 184.787 225.138 184.954 225.306 184.954ZM230.452 194.41H234.134C234.322 194.41 234.469 194.264 234.469 194.075V190.77C234.469 190.603 234.322 190.435 234.134 190.435H230.452C230.285 190.435 230.138 190.582 230.138 190.77V194.075C230.138 194.264 230.285 194.41 230.452 194.41Z" fill="#487B9A"/>
<rect x="70" y="302" width="142" height="72.0043" rx="36.0021" transform="rotate(-90 70 302)" fill="#5575DC"/>
<path d="M113.764 245.815C113.415 245.984 113.022 246.039 112.64 245.973C112.258 245.907 111.906 245.724 111.633 245.448L99.8067 234.604L94.6551 238.535C94.4229 238.712 94.1361 238.801 93.8447 238.788C93.5532 238.775 93.2756 238.66 93.0602 238.464L91.4076 236.952C91.2791 236.833 91.1765 236.69 91.1064 236.53C91.0362 236.37 91 236.197 91 236.023C91 235.848 91.0362 235.675 91.1064 235.515C91.1765 235.356 91.2791 235.212 91.4076 235.094L95.8737 230.997L91.4076 226.9C91.2791 226.782 91.1765 226.638 91.1064 226.478C91.0362 226.318 91 226.146 91 225.971C91 225.796 91.0362 225.624 91.1064 225.464C91.1765 225.304 91.2791 225.16 91.4076 225.042L93.0602 223.53C93.2759 223.334 93.5537 223.219 93.8451 223.207C94.1365 223.194 94.4231 223.284 94.6551 223.461L99.8067 227.389L111.633 216.548C111.907 216.274 112.259 216.092 112.641 216.027C113.022 215.961 113.415 216.016 113.764 216.184L119.943 219.17C120.591 219.484 121.004 220.144 121.004 220.869V232.151H113.508V224.151L104.534 230.997L113.508 237.843V232.151H121.004V241.127C121.004 241.852 120.591 242.512 119.943 242.826L113.764 245.815Z" fill="white"/>
<rect x="222" y="80" width="72" height="72" rx="36" transform="rotate(90 222 80)" fill="#494949"/>
<path d="M186 101.363C184.03 101.363 182.08 101.751 180.26 102.505C178.44 103.259 176.786 104.364 175.393 105.757C172.58 108.57 171 112.385 171 116.363C171 122.993 175.305 128.618 181.26 130.613C182.01 130.733 182.25 130.268 182.25 129.863V127.328C178.095 128.228 177.21 125.318 177.21 125.318C176.52 123.578 175.545 123.113 175.545 123.113C174.18 122.183 175.65 122.213 175.65 122.213C177.15 122.318 177.945 123.758 177.945 123.758C179.25 126.038 181.455 125.363 182.31 125.003C182.445 124.028 182.835 123.368 183.255 122.993C179.925 122.618 176.43 121.328 176.43 115.613C176.43 113.948 177 112.613 177.975 111.548C177.825 111.173 177.3 109.613 178.125 107.588C178.125 107.588 179.385 107.183 182.25 109.118C183.435 108.788 184.725 108.623 186 108.623C187.275 108.623 188.565 108.788 189.75 109.118C192.615 107.183 193.875 107.588 193.875 107.588C194.7 109.613 194.175 111.173 194.025 111.548C195 112.613 195.57 113.948 195.57 115.613C195.57 121.343 192.06 122.603 188.715 122.978C189.255 123.443 189.75 124.358 189.75 125.753V129.863C189.75 130.268 189.99 130.748 190.755 130.613C196.71 128.603 201 122.993 201 116.363C201 114.393 200.612 112.443 199.858 110.623C199.104 108.803 197.999 107.15 196.607 105.757C195.214 104.364 193.56 103.259 191.74 102.505C189.92 101.751 187.97 101.363 186 101.363Z" fill="white"/>
<defs>
<clipPath id="clip0_79_158">
<rect width="30" height="30" fill="white" transform="translate(56 101)"/>
</clipPath>
</defs>
</svg>
