<svg width="30" height="31" viewBox="0 0 30 31" fill="none" xmlns="http://www.w3.org/2000/svg">
<path d="M15 0.863403C13.0302 0.863403 11.0796 1.25139 9.25975 2.00521C7.43986 2.75903 5.78628 3.86392 4.3934 5.2568C1.58035 8.06985 0 11.8852 0 15.8634C0 22.4934 4.305 28.1184 10.26 30.1134C11.01 30.2334 11.25 29.7684 11.25 29.3634V26.8284C7.095 27.7284 6.21 24.8184 6.21 24.8184C5.52 23.0784 4.545 22.6134 4.545 22.6134C3.18 21.6834 4.65 21.7134 4.65 21.7134C6.15 21.8184 6.945 23.2584 6.945 23.2584C8.25 25.5384 10.455 24.8634 11.31 24.5034C11.445 23.5284 11.835 22.8684 12.255 22.4934C8.925 22.1184 5.43 20.8284 5.43 15.1134C5.43 13.4484 6 12.1134 6.975 11.0484C6.825 10.6734 6.3 9.11341 7.125 7.08841C7.125 7.08841 8.385 6.6834 11.25 8.61841C12.435 8.28841 13.725 8.12341 15 8.12341C16.275 8.12341 17.565 8.28841 18.75 8.61841C21.615 6.6834 22.875 7.08841 22.875 7.08841C23.7 9.11341 23.175 10.6734 23.025 11.0484C24 12.1134 24.57 13.4484 24.57 15.1134C24.57 20.8434 21.06 22.1034 17.715 22.4784C18.255 22.9434 18.75 23.8584 18.75 25.2534V29.3634C18.75 29.7684 18.99 30.2484 19.755 30.1134C25.71 28.1034 30 22.4934 30 15.8634C30 13.8936 29.612 11.943 28.8582 10.1232C28.1044 8.30327 26.9995 6.64968 25.6066 5.2568C24.2137 3.86392 22.5601 2.75903 20.7403 2.00521C18.9204 1.25139 16.9698 0.863403 15 0.863403Z" fill="white"/>
</svg>
