<svg width="84" height="96" viewBox="0 0 84 96" fill="none" xmlns="http://www.w3.org/2000/svg">
<g filter="url(#filter0_d_72_171)">
<path d="M42.0001 89C40.7438 89 39.5756 88.6731 38.4846 88.1074L27.358 81.7231C25.6866 80.8341 26.5242 80.5108 27.0274 80.3492C29.2829 79.6219 29.7016 79.4603 32.0452 78.1636C32.295 78.0019 32.633 78.0828 32.8828 78.2444L41.416 83.1777C41.7466 83.3393 42.169 83.3393 42.4188 83.1777L75.7987 64.5023C76.1293 64.3407 76.2983 64.0174 76.2983 63.6134V26.3434C76.2983 25.9393 76.133 25.6161 75.7987 25.4544L42.4188 6.86351C42.0845 6.70189 41.6658 6.70189 41.416 6.86351L8.0361 25.4544C7.70183 25.6161 7.53285 26.0201 7.53285 26.3434V63.6134C7.53285 63.9366 7.70183 64.3407 8.0361 64.5023L17.1534 69.5973C22.0904 72.0217 25.1834 69.1932 25.1834 66.3647V29.5796C25.1834 29.0947 25.6021 28.6098 26.1899 28.6098H30.4547C30.9579 28.6098 31.4575 29.0139 31.4575 29.5796V66.361C31.4575 72.749 27.8613 76.4665 21.5872 76.4665C19.6623 76.4665 18.1562 76.4665 13.8914 74.4461L5.10843 69.5973C4.05083 69.0144 3.16765 68.1602 2.54977 67.1227C1.9319 66.0852 1.60165 64.9017 1.59302 63.6942V26.4242C1.59302 23.9998 2.93012 21.737 5.10843 20.5248L38.4883 1.8457C39.5755 1.28984 40.779 1 42.0001 1C43.2211 1 44.4246 1.28984 45.5118 1.8457L78.8953 20.5211C81.07 21.7333 82.4071 23.9961 82.4071 26.4205V63.6905C82.4071 66.1149 81.07 68.3777 78.8953 69.5936L45.5155 88.2653C44.4059 88.7463 43.2093 88.9939 42.0001 88.9927M52.2892 63.3636C37.6508 63.3636 34.6386 56.8984 34.6386 51.3994C34.6386 50.9145 35.0574 50.4296 35.6415 50.4296H39.9907C40.494 50.4296 40.9091 50.7529 40.9091 51.2378C41.5813 55.5209 43.5061 57.6221 52.3736 57.6221C59.4008 57.6221 62.4129 56.0866 62.4129 52.45C62.4129 50.3488 61.5754 48.8134 50.6178 47.7628C41.4968 46.8702 35.8104 44.9343 35.8104 37.8998C35.8104 31.3502 41.4968 27.4674 51.0365 27.4674C61.7444 27.4674 67.0157 31.0269 67.6842 38.7887C67.6761 39.0514 67.5876 39.3052 67.4308 39.5161C67.2655 39.6777 67.0157 39.8393 66.7622 39.8393H62.4129C62.2017 39.8342 61.9978 39.7605 61.8321 39.6293C61.6665 39.4981 61.548 39.3165 61.4946 39.112C60.4881 34.6672 57.8947 33.2089 51.0365 33.2089C43.3372 33.2089 42.4188 35.795 42.4188 37.7382C42.4188 40.0818 43.5061 40.8091 53.8797 42.1021C64.1688 43.3951 69.0213 45.2539 69.0213 52.2039C68.9369 59.3229 62.9162 63.3636 52.2892 63.3636Z" fill="#CDFFA8"/>
<path d="M42.0001 89C40.7438 89 39.5756 88.6731 38.4846 88.1074L27.358 81.7231C25.6866 80.8341 26.5242 80.5108 27.0274 80.3492C29.2829 79.6219 29.7016 79.4603 32.0452 78.1636C32.295 78.0019 32.633 78.0828 32.8828 78.2444L41.416 83.1777C41.7466 83.3393 42.169 83.3393 42.4188 83.1777L75.7987 64.5023C76.1293 64.3407 76.2983 64.0174 76.2983 63.6134V26.3434C76.2983 25.9393 76.133 25.6161 75.7987 25.4544L42.4188 6.86351C42.0845 6.70189 41.6658 6.70189 41.416 6.86351L8.0361 25.4544C7.70183 25.6161 7.53285 26.0201 7.53285 26.3434V63.6134C7.53285 63.9366 7.70183 64.3407 8.0361 64.5023L17.1534 69.5973C22.0904 72.0217 25.1834 69.1932 25.1834 66.3647V29.5796C25.1834 29.0947 25.6021 28.6098 26.1899 28.6098H30.4547C30.9579 28.6098 31.4575 29.0139 31.4575 29.5796V66.361C31.4575 72.749 27.8613 76.4665 21.5872 76.4665C19.6623 76.4665 18.1562 76.4665 13.8914 74.4461L5.10843 69.5973C4.05083 69.0144 3.16765 68.1602 2.54977 67.1227C1.9319 66.0852 1.60165 64.9017 1.59302 63.6942V26.4242C1.59302 23.9998 2.93012 21.737 5.10843 20.5248L38.4883 1.8457C39.5755 1.28984 40.779 1 42.0001 1C43.2211 1 44.4246 1.28984 45.5118 1.8457L78.8954 20.5211C81.07 21.7333 82.4071 23.9961 82.4071 26.4205V63.6905C82.4071 66.1149 81.07 68.3777 78.8954 69.5936L45.5155 88.2653C44.4059 88.7463 43.2093 88.9939 42.0001 88.9927M52.2892 63.3636C37.6508 63.3636 34.6386 56.8984 34.6386 51.3994C34.6386 50.9145 35.0574 50.4296 35.6415 50.4296H39.9907C40.494 50.4296 40.9091 50.7529 40.9091 51.2378C41.5813 55.5209 43.5061 57.6221 52.3736 57.6221C59.4008 57.6221 62.4129 56.0866 62.4129 52.45C62.4129 50.3488 61.5754 48.8134 50.6178 47.7628C41.4968 46.8702 35.8104 44.9343 35.8104 37.8998C35.8104 31.3502 41.4968 27.4674 51.0365 27.4674C61.7444 27.4674 67.0157 31.0269 67.6842 38.7887C67.6761 39.0514 67.5876 39.3052 67.4308 39.5161C67.2655 39.6777 67.0157 39.8393 66.7622 39.8393H62.4129C62.2017 39.8342 61.9978 39.7605 61.8321 39.6293C61.6665 39.4981 61.548 39.3165 61.4946 39.112C60.4881 34.6672 57.8947 33.2089 51.0365 33.2089C43.3372 33.2089 42.4188 35.795 42.4188 37.7382C42.4188 40.0818 43.5061 40.8091 53.8797 42.1021C64.1688 43.3951 69.0213 45.2539 69.0213 52.2039C68.9369 59.3229 62.9162 63.3636 52.2892 63.3636Z" stroke="black" stroke-width="2"/>
</g>
<defs>
<filter id="filter0_d_72_171" x="0.593018" y="0" width="82.814" height="96" filterUnits="userSpaceOnUse" color-interpolation-filters="sRGB">
<feFlood flood-opacity="0" result="BackgroundImageFix"/>
<feColorMatrix in="SourceAlpha" type="matrix" values="0 0 0 0 0 0 0 0 0 0 0 0 0 0 0 0 0 0 127 0" result="hardAlpha"/>
<feOffset dy="6"/>
<feComposite in2="hardAlpha" operator="out"/>
<feColorMatrix type="matrix" values="0 0 0 0 0 0 0 0 0 0 0 0 0 0 0 0 0 0 1 0"/>
<feBlend mode="normal" in2="BackgroundImageFix" result="effect1_dropShadow_72_171"/>
<feBlend mode="normal" in="SourceGraphic" in2="effect1_dropShadow_72_171" result="shape"/>
</filter>
</defs>
</svg>
