<svg width="101" height="96" viewBox="0 0 101 96" fill="none" xmlns="http://www.w3.org/2000/svg">
<g filter="url(#filter0_d_72_126)">
<path d="M50.5 36.3528C55.2124 36.3528 59.0556 40.196 59.0556 45C59.0556 49.5752 55.2124 53.4642 50.5 53.4642C45.7875 53.4642 41.9443 49.5752 41.9443 45C41.9443 40.196 45.7875 36.3528 50.5 36.3528ZM29.3167 81.6017C32.1991 83.3403 38.5129 80.6867 45.7875 73.8239C43.4084 71.1245 41.075 68.1963 38.8789 65.131C35.1923 64.7755 31.527 64.2258 27.8984 63.4839C25.5651 73.2748 26.4343 80.0004 29.3167 81.6017ZM32.5651 55.34L31.2383 53.0066C30.735 54.3334 30.2318 55.6603 29.9115 56.9413C31.1468 57.2158 32.5194 57.4446 33.9377 57.6734L32.5651 55.34ZM62.487 51.8628L66.193 45L62.487 38.1372C61.1145 35.7123 59.6504 33.562 58.3236 31.4116C55.853 31.2744 53.2451 31.2744 50.5 31.2744C47.7548 31.2744 45.147 31.2744 42.6764 31.4116C41.3495 33.562 39.8855 35.7123 38.5129 38.1372L34.807 45L38.5129 51.8628C39.8855 54.2877 41.3495 56.438 42.6764 58.5884C45.147 58.7257 47.7548 58.7257 50.5 58.7257C53.2451 58.7257 55.853 58.7257 58.3236 58.5884C59.6504 56.438 61.1145 54.2877 62.487 51.8628ZM50.5 21.1174C49.6307 22.1239 48.7156 23.1762 47.8006 24.4115H53.1994C52.2843 23.1762 51.3693 22.1239 50.5 21.1174ZM50.5 68.8826C51.3693 67.8761 52.2843 66.8238 53.1994 65.5885H47.8006C48.7156 66.8238 49.6307 67.8761 50.5 68.8826ZM71.6375 8.39827C68.8008 6.65969 62.487 9.31332 55.2124 16.1761C57.5916 18.8755 59.9249 21.8037 62.121 24.8691C65.8727 25.2351 69.5786 25.7841 73.1015 26.5161C75.4349 16.7252 74.5656 9.9996 71.6375 8.39827ZM68.4348 34.66L69.7616 36.9934C70.2649 35.6666 70.7682 34.3397 71.0884 33.0587C69.8531 32.7842 68.4806 32.5554 67.0623 32.3267L68.4348 34.66ZM75.0689 2.40474C81.7945 6.24792 82.5265 16.3591 79.6898 28.1632C91.3109 31.5946 99.6835 37.2679 99.6835 45C99.6835 52.7321 91.3109 58.4054 79.6898 61.8368C82.5265 73.6409 81.7945 83.7521 75.0689 87.5953C68.3891 91.4384 59.2844 87.0462 50.5 78.6736C41.7156 87.0462 32.6109 91.4384 25.8853 87.5953C19.2055 83.7521 18.4735 73.6409 21.3101 61.8368C9.68905 58.4054 1.31641 52.7321 1.31641 45C1.31641 37.2679 9.68905 31.5946 21.3101 28.1632C18.4735 16.3591 19.2055 6.24792 25.8853 2.40474C32.6109 -1.43844 41.7156 2.95377 50.5 11.3264C59.2844 2.95377 68.3891 -1.43844 75.0689 2.40474ZM73.7421 45C75.2976 48.4314 76.6702 51.8628 77.814 55.34C87.422 52.4576 92.8207 48.3399 92.8207 45C92.8207 41.6601 87.422 37.5424 77.814 34.66C76.6702 38.1372 75.2976 41.5686 73.7421 45ZM27.2579 45C25.7023 41.5686 24.3297 38.1372 23.1859 34.66C13.578 37.5424 8.17923 41.6601 8.17923 45C8.17923 48.3399 13.578 52.4576 23.1859 55.34C24.3297 51.8628 25.7023 48.4314 27.2579 45ZM68.4348 55.34L67.0623 57.6734C68.4806 57.4446 69.8531 57.2158 71.0884 56.9413C70.7682 55.6603 70.2649 54.3334 69.7616 53.0066L68.4348 55.34ZM55.2124 73.8239C62.487 80.6867 68.8008 83.3403 71.6375 81.6017C74.5656 80.0004 75.4349 73.2748 73.1015 63.4839C69.5786 64.2159 65.8727 64.7649 62.121 65.131C59.9249 68.1963 57.5916 71.1245 55.2124 73.8239ZM32.5651 34.66L33.9377 32.3267C32.5194 32.5554 31.1468 32.7842 29.9115 33.0587C30.2318 34.3397 30.735 35.6666 31.2383 36.9934L32.5651 34.66ZM45.7875 16.1761C38.5129 9.31332 32.1991 6.65969 29.3167 8.39827C26.4343 9.9996 25.5651 16.7252 27.8984 26.5161C31.527 25.7743 35.1923 25.2245 38.8789 24.8691C41.075 21.8037 43.4084 18.8755 45.7875 16.1761Z" fill="#82ABFF"/>
<path d="M50.5 36.3528C55.2124 36.3528 59.0556 40.196 59.0556 45C59.0556 49.5752 55.2124 53.4642 50.5 53.4642C45.7875 53.4642 41.9443 49.5752 41.9443 45C41.9443 40.196 45.7875 36.3528 50.5 36.3528ZM29.3167 81.6017C32.1991 83.3403 38.5129 80.6867 45.7875 73.8239C43.4084 71.1245 41.075 68.1963 38.8789 65.131C35.1923 64.7755 31.527 64.2258 27.8984 63.4839C25.5651 73.2748 26.4343 80.0004 29.3167 81.6017ZM32.5651 55.34L31.2383 53.0066C30.735 54.3334 30.2318 55.6603 29.9115 56.9413C31.1468 57.2158 32.5194 57.4446 33.9377 57.6734L32.5651 55.34ZM62.487 51.8628L66.193 45L62.487 38.1372C61.1145 35.7123 59.6504 33.562 58.3236 31.4116C55.853 31.2744 53.2451 31.2744 50.5 31.2744C47.7548 31.2744 45.147 31.2744 42.6764 31.4116C41.3495 33.562 39.8855 35.7123 38.5129 38.1372L34.807 45L38.5129 51.8628C39.8855 54.2877 41.3495 56.438 42.6764 58.5884C45.147 58.7257 47.7548 58.7257 50.5 58.7257C53.2451 58.7257 55.853 58.7257 58.3236 58.5884C59.6504 56.438 61.1145 54.2877 62.487 51.8628ZM50.5 21.1174C49.6307 22.1239 48.7156 23.1762 47.8006 24.4115H53.1994C52.2843 23.1762 51.3693 22.1239 50.5 21.1174ZM50.5 68.8826C51.3693 67.8761 52.2843 66.8238 53.1994 65.5885H47.8006C48.7156 66.8238 49.6307 67.8761 50.5 68.8826ZM71.6375 8.39827C68.8008 6.65969 62.487 9.31332 55.2124 16.1761C57.5916 18.8755 59.9249 21.8037 62.121 24.8691C65.8727 25.2351 69.5786 25.7841 73.1015 26.5161C75.4349 16.7252 74.5656 9.9996 71.6375 8.39827ZM68.4348 34.66L69.7616 36.9934C70.2649 35.6666 70.7682 34.3397 71.0884 33.0587C69.8531 32.7842 68.4806 32.5554 67.0623 32.3267L68.4348 34.66ZM75.0689 2.40474C81.7945 6.24792 82.5265 16.3591 79.6898 28.1632C91.3109 31.5946 99.6835 37.2679 99.6835 45C99.6835 52.7321 91.3109 58.4054 79.6898 61.8368C82.5265 73.6409 81.7945 83.7521 75.0689 87.5953C68.3891 91.4384 59.2844 87.0462 50.5 78.6736C41.7156 87.0462 32.6109 91.4384 25.8853 87.5953C19.2055 83.7521 18.4735 73.6409 21.3101 61.8368C9.68905 58.4054 1.31641 52.7321 1.31641 45C1.31641 37.2679 9.68905 31.5946 21.3101 28.1632C18.4735 16.3591 19.2055 6.24792 25.8853 2.40474C32.6109 -1.43844 41.7156 2.95377 50.5 11.3264C59.2844 2.95377 68.3891 -1.43844 75.0689 2.40474ZM73.7421 45C75.2976 48.4314 76.6702 51.8628 77.814 55.34C87.422 52.4576 92.8207 48.3399 92.8207 45C92.8207 41.6601 87.422 37.5424 77.814 34.66C76.6702 38.1372 75.2976 41.5686 73.7421 45ZM27.2579 45C25.7023 41.5686 24.3297 38.1372 23.1859 34.66C13.578 37.5424 8.17923 41.6601 8.17923 45C8.17923 48.3399 13.578 52.4576 23.1859 55.34C24.3297 51.8628 25.7023 48.4314 27.2579 45ZM68.4348 55.34L67.0623 57.6734C68.4806 57.4446 69.8531 57.2158 71.0884 56.9413C70.7682 55.6603 70.2649 54.3334 69.7616 53.0066L68.4348 55.34ZM55.2124 73.8239C62.487 80.6867 68.8008 83.3403 71.6375 81.6017C74.5656 80.0004 75.4349 73.2748 73.1015 63.4839C69.5786 64.2159 65.8727 64.7649 62.121 65.131C59.9249 68.1963 57.5916 71.1245 55.2124 73.8239ZM32.5651 34.66L33.9377 32.3267C32.5194 32.5554 31.1468 32.7842 29.9115 33.0587C30.2318 34.3397 30.735 35.6666 31.2383 36.9934L32.5651 34.66ZM45.7875 16.1761C38.5129 9.31332 32.1991 6.65969 29.3167 8.39827C26.4343 9.9996 25.5651 16.7252 27.8984 26.5161C31.527 25.7743 35.1923 25.2245 38.8789 24.8691C41.075 21.8037 43.4084 18.8755 45.7875 16.1761Z" stroke="black" stroke-width="2"/>
</g>
<defs>
<filter id="filter0_d_72_126" x="0.316406" y="0" width="100.367" height="96" filterUnits="userSpaceOnUse" color-interpolation-filters="sRGB">
<feFlood flood-opacity="0" result="BackgroundImageFix"/>
<feColorMatrix in="SourceAlpha" type="matrix" values="0 0 0 0 0 0 0 0 0 0 0 0 0 0 0 0 0 0 127 0" result="hardAlpha"/>
<feOffset dy="6"/>
<feComposite in2="hardAlpha" operator="out"/>
<feColorMatrix type="matrix" values="0 0 0 0 0 0 0 0 0 0 0 0 0 0 0 0 0 0 1 0"/>
<feBlend mode="normal" in2="BackgroundImageFix" result="effect1_dropShadow_72_126"/>
<feBlend mode="normal" in="SourceGraphic" in2="effect1_dropShadow_72_126" result="shape"/>
</filter>
</defs>
</svg>
