<svg width="88" height="94" viewBox="0 0 88 94" fill="none" xmlns="http://www.w3.org/2000/svg">
<g filter="url(#filter0_d_130_8)">
<mask id="path-1-inside-1_130_8" fill="white">
<path d="M85.9063 1.28667e-05H2.09C1.81523 1.24438e-05 1.54316 0.0541932 1.28935 0.159455C1.03554 0.264716 0.804975 0.418992 0.610852 0.613455C0.41673 0.807918 0.262858 1.03875 0.158041 1.29275C0.0532249 1.54674 -0.000478833 1.81891 3.22232e-06 2.09368V85.91C-0.000479799 86.1851 0.0533448 86.4576 0.15839 86.7118C0.263436 86.966 0.417636 87.197 0.612147 87.3915C0.806658 87.586 1.03765 87.7402 1.29189 87.8453C1.54612 87.9503 1.81859 88.0042 2.09367 88.0037H85.91C86.1851 88.0042 86.4575 87.9503 86.7118 87.8453C86.966 87.7402 87.197 87.586 87.3915 87.3915C87.586 87.197 87.7402 86.966 87.8453 86.7118C87.9503 86.4576 88.0041 86.1851 88.0037 85.91V2.09001C88.0037 1.81493 87.9494 1.54256 87.8439 1.28851C87.7384 1.03446 87.5838 0.803731 87.3889 0.609561C87.1941 0.41539 86.9628 0.261595 86.7084 0.156995C86.454 0.0523948 86.1814 -0.000952329 85.9063 1.28667e-05ZM52.382 47.0287H41.9063V79.618H33.5243V47.0287H23.0487V39.809H52.382V47.0287ZM54.7287 77.7553V69.047C54.7287 69.047 59.488 72.633 65.197 72.633C70.906 72.633 70.686 68.9003 70.686 68.387C70.686 62.9713 54.5087 62.9713 54.5087 50.9667C54.5087 34.6427 78.0817 41.085 78.0817 41.085L77.7883 48.8437C77.7883 48.8437 73.8357 46.2073 69.3697 46.2073C64.9037 46.2073 63.294 48.334 63.294 50.6C63.294 56.4557 79.618 55.8727 79.618 67.6573C79.618 85.8073 54.7287 77.759 54.7287 77.759"/>
</mask>
<path d="M85.9063 1.28667e-05H2.09C1.81523 1.24438e-05 1.54316 0.0541932 1.28935 0.159455C1.03554 0.264716 0.804975 0.418992 0.610852 0.613455C0.41673 0.807918 0.262858 1.03875 0.158041 1.29275C0.0532249 1.54674 -0.000478833 1.81891 3.22232e-06 2.09368V85.91C-0.000479799 86.1851 0.0533448 86.4576 0.15839 86.7118C0.263436 86.966 0.417636 87.197 0.612147 87.3915C0.806658 87.586 1.03765 87.7402 1.29189 87.8453C1.54612 87.9503 1.81859 88.0042 2.09367 88.0037H85.91C86.1851 88.0042 86.4575 87.9503 86.7118 87.8453C86.966 87.7402 87.197 87.586 87.3915 87.3915C87.586 87.197 87.7402 86.966 87.8453 86.7118C87.9503 86.4576 88.0041 86.1851 88.0037 85.91V2.09001C88.0037 1.81493 87.9494 1.54256 87.8439 1.28851C87.7384 1.03446 87.5838 0.803731 87.3889 0.609561C87.1941 0.41539 86.9628 0.261595 86.7084 0.156995C86.454 0.0523948 86.1814 -0.000952329 85.9063 1.28667e-05ZM52.382 47.0287H41.9063V79.618H33.5243V47.0287H23.0487V39.809H52.382V47.0287ZM54.7287 77.7553V69.047C54.7287 69.047 59.488 72.633 65.197 72.633C70.906 72.633 70.686 68.9003 70.686 68.387C70.686 62.9713 54.5087 62.9713 54.5087 50.9667C54.5087 34.6427 78.0817 41.085 78.0817 41.085L77.7883 48.8437C77.7883 48.8437 73.8357 46.2073 69.3697 46.2073C64.9037 46.2073 63.294 48.334 63.294 50.6C63.294 56.4557 79.618 55.8727 79.618 67.6573C79.618 85.8073 54.7287 77.759 54.7287 77.759" fill="#4281FF"/>
<path d="M85.9063 1.28667e-05V2.00003L85.9134 2L85.9063 1.28667e-05ZM2.09 1.28667e-05L2.09 2.00001H2.09V1.28667e-05ZM3.22232e-06 2.09368L2.00001 2.09368L2 2.09017L3.22232e-06 2.09368ZM3.22232e-06 85.91L2 85.9135V85.91H3.22232e-06ZM2.09367 88.0037L2.09367 86.0037L2.09016 86.0037L2.09367 88.0037ZM85.91 88.0037L85.9135 86.0037H85.91V88.0037ZM88.0037 85.91L86.0037 85.91L86.0037 85.9135L88.0037 85.91ZM88.0037 2.09001L86.0037 2.09V2.09001H88.0037ZM52.382 47.0287V49.0287H54.382V47.0287H52.382ZM41.9063 47.0287V45.0287H39.9063V47.0287H41.9063ZM41.9063 79.618V81.618H43.9063V79.618H41.9063ZM33.5243 79.618H31.5243V81.618H33.5243V79.618ZM33.5243 47.0287H35.5243V45.0287H33.5243V47.0287ZM23.0487 47.0287H21.0487V49.0287H23.0487V47.0287ZM23.0487 39.809V37.809H21.0487V39.809H23.0487ZM52.382 39.809H54.382V37.809H52.382V39.809ZM54.7287 69.047L55.9322 67.4497L52.7287 65.0359V69.047H54.7287ZM78.0817 41.085L80.0802 41.1606L80.1402 39.5743L78.6089 39.1558L78.0817 41.085ZM77.7883 48.8437L76.6786 50.5075L79.6519 52.4907L79.7869 48.9192L77.7883 48.8437ZM85.9063 -1.99999H2.09V2.00001H85.9063V-1.99999ZM2.09001 -1.99999C1.5523 -1.99999 1.01986 -1.89396 0.523172 -1.68797L2.05552 2.00688C2.06645 2.00235 2.07817 2.00001 2.09 2.00001L2.09001 -1.99999ZM0.523172 -1.68797C0.0264817 -1.48198 -0.424715 -1.18007 -0.8046 -0.799518L2.0263 2.02643C2.03466 2.01805 2.04459 2.01141 2.05552 2.00688L0.523172 -1.68797ZM-0.8046 -0.799518C-1.18449 -0.418966 -1.4856 0.0327594 -1.69072 0.529809L2.00681 2.05568C2.01132 2.04474 2.01795 2.0348 2.0263 2.02643L-0.8046 -0.799518ZM-1.69072 0.529809C-1.89584 1.02686 -2.00094 1.55948 -1.99999 2.09719L2 2.09017C1.99998 2.07834 2.00229 2.06662 2.00681 2.05568L-1.69072 0.529809ZM-2 2.09368V85.91H2V2.09368H-2ZM-1.99999 85.9065C-2.00094 86.4448 -1.89561 86.978 -1.69004 87.4755L2.00682 85.948C2.0023 85.9371 1.99998 85.9254 2 85.9135L-1.99999 85.9065ZM-1.69004 87.4755C-1.48447 87.9731 -1.18271 88.4251 -0.802067 88.8057L2.02636 85.9773C2.01798 85.9689 2.01134 85.959 2.00682 85.948L-1.69004 87.4755ZM-0.802067 88.8057C-0.421429 89.1864 0.0306123 89.4881 0.528143 89.6937L2.05563 85.9969C2.0447 85.9923 2.03475 85.9857 2.02636 85.9773L-0.802067 88.8057ZM0.528143 89.6937C1.02567 89.8993 1.55888 90.0046 2.09718 90.0037L2.09016 86.0037C2.0783 86.0037 2.06657 86.0014 2.05563 85.9969L0.528143 89.6937ZM2.09367 90.0037H85.91V86.0037H2.09367V90.0037ZM85.9065 90.0037C86.4448 90.0046 86.978 89.8993 87.4755 89.6937L85.948 85.9969C85.9371 86.0014 85.9254 86.0037 85.9135 86.0037L85.9065 90.0037ZM87.4755 89.6937C87.9731 89.4881 88.4251 89.1864 88.8057 88.8057L85.9773 85.9773C85.9689 85.9857 85.959 85.9923 85.948 85.9969L87.4755 89.6937ZM88.8057 88.8057C89.1864 88.4251 89.4881 87.9731 89.6937 87.4755L85.9968 85.948C85.9923 85.959 85.9857 85.9689 85.9773 85.9773L88.8057 88.8057ZM89.6937 87.4755C89.8993 86.978 90.0046 86.4448 90.0037 85.9065L86.0037 85.9135C86.0037 85.9254 86.0014 85.9371 85.9968 85.948L89.6937 87.4755ZM90.0037 85.91V2.09001H86.0037V85.91H90.0037ZM90.0037 2.09003C90.0037 1.55171 89.8974 1.01869 89.691 0.521528L85.9968 2.05549C86.0013 2.06642 86.0037 2.07815 86.0037 2.09L90.0037 2.09003ZM89.691 0.521528C89.4845 0.0243629 89.182 -0.427152 88.8007 -0.807127L85.9772 2.02625C85.9856 2.03461 85.9922 2.04455 85.9968 2.05549L89.691 0.521528ZM88.8007 -0.807127C88.4193 -1.1871 87.9668 -1.48807 87.4689 -1.69277L85.9479 2.00676C85.9588 2.01126 85.9688 2.01789 85.9772 2.02625L88.8007 -0.807127ZM87.4689 -1.69277C86.971 -1.89746 86.4376 -2.00186 85.8993 -1.99997L85.9134 2C85.9252 1.99996 85.9369 2.00225 85.9479 2.00676L87.4689 -1.69277ZM52.382 45.0287H41.9063V49.0287H52.382V45.0287ZM39.9063 47.0287V79.618H43.9063V47.0287H39.9063ZM41.9063 77.618H33.5243V81.618H41.9063V77.618ZM35.5243 79.618V47.0287H31.5243V79.618H35.5243ZM33.5243 45.0287H23.0487V49.0287H33.5243V45.0287ZM25.0487 47.0287V39.809H21.0487V47.0287H25.0487ZM23.0487 41.809H52.382V37.809H23.0487V41.809ZM50.382 39.809V47.0287H54.382V39.809H50.382ZM56.7287 77.7553V69.047H52.7287V77.7553H56.7287ZM54.7287 69.047C53.5251 70.6443 53.5256 70.6447 53.5261 70.6451C53.5263 70.6452 53.5268 70.6456 53.5271 70.6459C53.5279 70.6464 53.5287 70.647 53.5296 70.6477C53.5314 70.6491 53.5335 70.6506 53.5359 70.6524C53.5406 70.656 53.5466 70.6604 53.5537 70.6656C53.5679 70.6761 53.5867 70.6899 53.6101 70.7069C53.6569 70.7408 53.7218 70.7871 53.804 70.8442C53.9683 70.9582 54.2021 71.1153 54.498 71.3011C55.0883 71.6718 55.9326 72.1609 56.9698 72.6494C59.0238 73.6168 61.942 74.633 65.197 74.633V70.633C62.743 70.633 60.4271 69.8563 58.6741 69.0306C57.8079 68.6227 57.1055 68.2152 56.6251 67.9136C56.3855 67.7631 56.2029 67.6401 56.0846 67.558C56.0255 67.517 55.9827 67.4863 55.9569 67.4677C55.944 67.4584 55.9355 67.452 55.9313 67.449C55.9292 67.4474 55.9283 67.4467 55.9284 67.4468C55.9285 67.4469 55.9288 67.4471 55.9295 67.4476C55.9298 67.4478 55.9302 67.4481 55.9306 67.4485C55.9309 67.4486 55.9312 67.4489 55.9314 67.449C55.9318 67.4493 55.9322 67.4497 54.7287 69.047ZM65.197 74.633C68.5168 74.633 70.6215 73.5154 71.7513 71.8046C72.2756 71.0107 72.5043 70.2091 72.6053 69.5877C72.6561 69.2751 72.6758 69.0003 72.6831 68.7847C72.6898 68.5895 72.686 68.3838 72.686 68.387H68.686C68.686 68.694 68.6997 69.167 68.4134 69.6004C68.226 69.8842 67.5862 70.633 65.197 70.633V74.633ZM72.686 68.387C72.686 65.8893 70.7857 64.3534 69.2193 63.3731C68.3729 62.8434 67.4126 62.3485 66.4641 61.8728C65.4898 61.384 64.5228 60.9129 63.5455 60.3867C59.6229 58.2748 56.5087 55.7843 56.5087 50.9667H52.5087C52.5087 58.1537 57.4831 61.6656 61.6492 63.9087C62.6941 64.4713 63.7492 64.986 64.6707 65.4482C65.618 65.9233 66.427 66.3444 67.0973 66.7639C68.5641 67.6819 68.686 68.1769 68.686 68.387H72.686ZM56.5087 50.9667C56.5087 47.4369 57.7461 45.3959 59.4076 44.1241C61.1748 42.7715 63.6722 42.101 66.4407 41.899C69.178 41.6994 71.9589 41.9731 74.0865 42.309C75.1429 42.4758 76.0216 42.6552 76.6319 42.7918C76.9368 42.86 77.1737 42.9174 77.3315 42.9568C77.4103 42.9766 77.4693 42.9918 77.5069 43.0017C77.5257 43.0066 77.5392 43.0102 77.5472 43.0123C77.5512 43.0134 77.5538 43.0141 77.555 43.0144C77.5556 43.0146 77.5559 43.0147 77.5558 43.0146C77.5557 43.0146 77.5554 43.0145 77.5554 43.0145C77.5549 43.0144 77.5544 43.0143 78.0817 41.085C78.6089 39.1558 78.6082 39.1556 78.6074 39.1554C78.607 39.1553 78.6062 39.155 78.6054 39.1548C78.6039 39.1544 78.602 39.1539 78.5997 39.1533C78.5952 39.152 78.5893 39.1504 78.5819 39.1485C78.5673 39.1445 78.5469 39.1391 78.5212 39.1324C78.4696 39.1189 78.3962 39.0999 78.3024 39.0765C78.1148 39.0295 77.8453 38.9644 77.5056 38.8884C76.8268 38.7364 75.8638 38.54 74.7103 38.3579C72.418 37.996 69.3056 37.6794 66.1497 37.9096C63.0249 38.1376 59.6291 38.9173 56.9763 40.9478C54.2178 43.0593 52.5087 46.3345 52.5087 50.9667H56.5087ZM76.0831 41.0095L75.7898 48.7681L79.7869 48.9192L80.0802 41.1606L76.0831 41.0095ZM77.7883 48.8437C78.8981 47.1798 78.8976 47.1795 78.8972 47.1792C78.897 47.1791 78.8966 47.1788 78.8962 47.1786C78.8955 47.1781 78.8948 47.1776 78.894 47.1771C78.8923 47.176 78.8905 47.1748 78.8884 47.1734C78.8841 47.1706 78.8789 47.1671 78.8728 47.1631C78.8604 47.155 78.8442 47.1445 78.8243 47.1316C78.7844 47.106 78.7294 47.0712 78.6602 47.0284C78.5218 46.9431 78.3261 46.8259 78.0799 46.6877C77.5885 46.4119 76.8894 46.0485 76.0379 45.6856C74.357 44.9693 71.9729 44.2073 69.3697 44.2073V48.2073C71.2324 48.2073 73.0576 48.7636 74.4696 49.3654C75.1645 49.6616 75.7327 49.9573 76.122 50.1758C76.3161 50.2847 76.4641 50.3736 76.5594 50.4324C76.607 50.4617 76.6413 50.4835 76.6614 50.4965C76.6715 50.503 76.6781 50.5072 76.681 50.5091C76.6824 50.5101 76.6829 50.5104 76.6825 50.5102C76.6823 50.5101 76.6819 50.5098 76.6813 50.5093C76.6809 50.5091 76.6805 50.5089 76.6801 50.5086C76.6799 50.5084 76.6795 50.5082 76.6794 50.5081C76.679 50.5078 76.6786 50.5075 77.7883 48.8437ZM69.3697 44.2073C66.8437 44.2073 64.8028 44.8077 63.3633 46.0288C61.8877 47.2805 61.294 48.9735 61.294 50.6H65.294C65.294 49.9606 65.5051 49.4572 65.9509 49.0791C66.4327 48.6704 67.4296 48.2073 69.3697 48.2073V44.2073ZM61.294 50.6C61.294 53.1696 63.1413 54.7511 64.7875 55.7761C66.4092 56.786 68.7269 57.7684 70.555 58.6909C74.5464 60.7049 77.618 63.0047 77.618 67.6573H81.618C81.618 60.5254 76.5276 57.2242 72.357 55.1197C70.1041 53.9829 68.3408 53.2766 66.9018 52.3806C65.4872 51.4997 65.294 50.9583 65.294 50.6H61.294ZM77.618 67.6573C77.618 71.6835 76.2699 73.9512 74.5084 75.3085C72.6436 76.7452 70.0123 77.3956 67.0909 77.5161C64.2007 77.6353 61.2628 77.2265 59.0133 76.7725C57.8966 76.5471 56.9675 76.3143 56.3218 76.1392C55.9992 76.0517 55.7484 75.9788 55.5812 75.9288C55.4977 75.9038 55.4351 75.8846 55.3951 75.8721C55.375 75.8659 55.3606 75.8613 55.3521 75.8586C55.3478 75.8572 55.345 75.8563 55.3436 75.8559C55.3429 75.8557 55.3426 75.8556 55.3427 75.8556C55.3427 75.8556 55.3431 75.8557 55.3431 75.8557C55.3435 75.8559 55.344 75.856 54.7287 77.759C54.1133 79.662 54.114 79.6622 54.1148 79.6625C54.1152 79.6626 54.1161 79.6629 54.1169 79.6632C54.1185 79.6637 54.1205 79.6643 54.1228 79.665C54.1275 79.6665 54.1337 79.6685 54.1413 79.671C54.1567 79.6758 54.178 79.6826 54.2051 79.691C54.2592 79.7079 54.3364 79.7316 54.4351 79.7611C54.6326 79.8202 54.9165 79.9025 55.2745 79.9996C55.9899 80.1937 57.0053 80.4479 58.2219 80.6934C60.6392 81.1813 63.9236 81.6502 67.2558 81.5127C70.5567 81.3766 74.1477 80.6359 76.9497 78.4771C79.8549 76.2387 81.618 72.7062 81.618 67.6573H77.618Z" fill="black" mask="url(#path-1-inside-1_130_8)"/>
</g>
<defs>
<filter id="filter0_d_130_8" x="0" y="0" width="88.0037" height="94.0037" filterUnits="userSpaceOnUse" color-interpolation-filters="sRGB">
<feFlood flood-opacity="0" result="BackgroundImageFix"/>
<feColorMatrix in="SourceAlpha" type="matrix" values="0 0 0 0 0 0 0 0 0 0 0 0 0 0 0 0 0 0 127 0" result="hardAlpha"/>
<feOffset dy="6"/>
<feComposite in2="hardAlpha" operator="out"/>
<feColorMatrix type="matrix" values="0 0 0 0 0 0 0 0 0 0 0 0 0 0 0 0 0 0 1 0"/>
<feBlend mode="normal" in2="BackgroundImageFix" result="effect1_dropShadow_130_8"/>
<feBlend mode="normal" in="SourceGraphic" in2="effect1_dropShadow_130_8" result="shape"/>
</filter>
</defs>
</svg>
